<?xml version="1.0" encoding="UTF-8"?>
<svg id="Camada_1" xmlns="http://www.w3.org/2000/svg" version="1.1" viewBox="0 0 35 8.4">
  <!-- Generator: Adobe Illustrator 30.6.0, SVG Export Plug-In . SVG Version: 2.1.4 Build 109)  -->
  <defs>
    <style>
      .st0, .st1 {
        fill: #fff;
      }

      .st1 {
        font-family: RoundedMplus1c-Black, 'Rounded Mplus 1c';
        font-size: 6.1px;
        font-weight: 800;
        letter-spacing: 0em;
      }

      .st2 {
        fill: #0475f7;
      }
    </style>
  </defs>
  <rect class="st2" width="35" height="8" rx="1.5" ry="1.5"/>
  <g>
    <path class="st0" d="M4.9,2.1c0,.8-.6,1.4-1.4,1.4s-1.4-.6-1.4-1.4.6-1.4,1.4-1.4,1.4.6,1.4,1.4ZM3.6,2.4l.4.2v-.4c0,0,.2-.3.2-.3h-.4c0,0-.2-.4-.2-.4l-.2.4h-.4c0,0,.3.4.3.4v.4c0,0,.3-.2.3-.2Z"/>
    <path class="st0" d="M4.5,5.6c-.6.2-1.6.2-2.2-.1s0,0,0-.1c0,0,0,0,0-.1.4-.3.7-.1.7-.3s-.1-.4-.2-.6c-.2-.4-.4-.8-.5-1.3.7.8,1.8.8,2.4,0-.2.7-.7,1.3-.8,2,.3,0,.9.2.8.4s-.2.2-.3.2Z"/>
    <path class="st0" d="M4.7,6.7h-.4c-.6.3-1.3.2-1.9,0-.1,0-.2-.1-.2-.3v-.7c.8.3,1.7.3,2.6,0v.8c0,0,0,.1-.1.1Z"/>
    <path class="st0" d="M2.7,4.5c0,.2.2.3.2.5-.8-.9-1.3-1.9-1.5-3h.5c0,.9.4,1.7.7,2.5Z"/>
    <path class="st0" d="M5.5,2.6c-.2.7-.7,1.8-1.4,2.3,0-.2.2-.5.3-.7.4-.7.7-1.5.7-2.3h.5c0,.2,0,.5,0,.7Z"/>
  </g>
  <text class="st1" transform="translate(6.7 6.3)"><tspan x="0" y="0">PLATINA</tspan></text>
</svg>